<svg xmlns="http://www.w3.org/2000/svg" viewBox="0 0 1200 300" width="1200" height="300" fill="none" role="img" aria-label="chamdom — agent-assisted builder, operator systems, crypto cockpits">
  <defs>
    <linearGradient id="bg" x1="0" y1="0" x2="1200" y2="300" gradientUnits="userSpaceOnUse">
      <stop stop-color="#0D1117"/><stop offset="1" stop-color="#090B10"/>
    </linearGradient>
    <linearGradient id="accent" x1="0" y1="0" x2="1200" y2="0" gradientUnits="userSpaceOnUse">
      <stop stop-color="#5B21B6"/><stop offset="1" stop-color="#22D3EE"/>
    </linearGradient>
    <radialGradient id="glowV" cx="0" cy="0" r="1" gradientUnits="userSpaceOnUse" gradientTransform="translate(250 120) scale(470)">
      <stop stop-color="#8B5CF6" stop-opacity="0.42"/><stop offset="1" stop-color="#8B5CF6" stop-opacity="0"/>
    </radialGradient>
    <radialGradient id="glowC" cx="0" cy="0" r="1" gradientUnits="userSpaceOnUse" gradientTransform="translate(980 235) scale(420)">
      <stop stop-color="#06B6D4" stop-opacity="0.15"/><stop offset="1" stop-color="#06B6D4" stop-opacity="0"/>
    </radialGradient>
    <pattern id="grid" width="36" height="36" patternUnits="userSpaceOnUse">
      <path d="M36 0H0V36" fill="none" stroke="#FFFFFF" stroke-opacity="0.03"/>
    </pattern>
    <linearGradient id="spark" x1="0" y1="0" x2="0" y2="1">
      <stop stop-color="#22D3EE" stop-opacity="0.32"/><stop offset="1" stop-color="#22D3EE" stop-opacity="0"/>
    </linearGradient>
    <style>
      .cur { animation: bl 1.1s step-end infinite; }
      @keyframes bl { 50% { opacity: 0; } }
    </style>
  </defs>

  <rect width="1200" height="300" fill="url(#bg)"/>
  <rect width="1200" height="300" fill="url(#grid)"/>
  <rect width="1200" height="300" fill="url(#glowV)"/>
  <rect width="1200" height="300" fill="url(#glowC)"/>
  <rect width="1200" height="3" fill="url(#accent)"/>

  <g stroke="#2A3038" stroke-width="1.5">
    <path d="M40 36 h26 M40 36 v26"/><path d="M1160 36 h-26 M1160 36 v26"/>
    <path d="M40 264 h26 M40 264 v-26"/><path d="M1160 264 h-26 M1160 264 v-26"/>
  </g>

  <g transform="translate(742 86)">
    <path d="M0 124 L44 100 L88 108 L132 72 L176 88 L220 50 L264 62 L308 26 L352 40 L396 10 L396 124 Z" fill="url(#spark)"/>
    <path d="M0 124 L44 100 L88 108 L132 72 L176 88 L220 50 L264 62 L308 26 L352 40 L396 10" fill="none" stroke="#22D3EE" stroke-width="2" stroke-linejoin="round" stroke-linecap="round" stroke-opacity="0.6"/>
    <circle cx="396" cy="10" r="4.5" fill="#F59E0B"/>
  </g>

  <g font-family="ui-monospace,'SF Mono','SFMono-Regular','Cascadia Code',Menlo,Consolas,'Liberation Mono',monospace">
    <text x="74" y="98" font-size="20" font-weight="500">
      <tspan fill="#22D3EE">~</tspan><tspan fill="#586069"> &#10095; </tspan><tspan fill="#8B949E">whoami</tspan>
    </text>
    <text x="72" y="184" font-size="80" font-weight="800" fill="#E6EDF3" letter-spacing="-2">chamdom<tspan class="cur" fill="#22D3EE" dx="12" font-size="60" font-weight="400">&#9612;</tspan></text>
    <text x="74" y="228" font-size="19" font-weight="500" fill="#9DA7B3">agent-assisted builder<tspan fill="#3F4651">&#160;&#183;&#160;</tspan>operator systems<tspan fill="#3F4651">&#160;&#183;&#160;</tspan>crypto cockpits</text>
    <text x="74" y="258" font-size="13.5" font-weight="500" fill="#586069" letter-spacing="0.5">paper-first&#160;&#183;&#160;risk-gated&#160;&#183;&#160;operator-friendly</text>
  </g>
</svg>
